<svg xmlns="http://www.w3.org/2000/svg" viewBox="0 0 64 64" role="img" aria-label="SlowShield"><defs><clipPath id="ua-c"><path d="M32 4 L54 11 V30 C54 45 45 55 32 60 C19 55 10 45 10 30 V11 Z"/></clipPath></defs><g clip-path="url(#ua-c)" fill="#1d44c4"><circle cx="32" cy="6.8" r="3.55"/><circle cx="12.8" cy="16.4" r="3.55"/><circle cx="22.4" cy="16.4" r="3.55"/><circle cx="32" cy="16.4" r="3.55"/><circle cx="41.6" cy="16.4" r="3.55"/><circle cx="51.2" cy="16.4" r="3.55"/><circle cx="12.8" cy="26" r="3.55"/><circle cx="22.4" cy="26" r="3.55"/><circle cx="32" cy="26" r="3.55"/><circle cx="41.6" cy="26" r="3.55"/><circle cx="51.2" cy="26" r="3.55"/><circle cx="12.8" cy="35.6" r="3.55"/><circle cx="22.4" cy="35.6" r="3.55"/><circle cx="32" cy="35.6" r="3.55"/><circle cx="41.6" cy="35.6" r="3.55"/><circle cx="51.2" cy="35.6" r="3.55"/><circle cx="12.8" cy="45.2" r="3.55"/><circle cx="22.4" cy="45.2" r="3.55"/><circle cx="32" cy="45.2" r="3.55"/><circle cx="51.2" cy="45.2" r="3.55"/><circle cx="22.4" cy="54.8" r="3.55"/><circle cx="32" cy="54.8" r="3.55"/><circle cx="41.6" cy="54.8" r="3.55"/></g><circle cx="41.6" cy="45.2" r="4.6" fill="#1c1914"/></svg>
