<svg xmlns="http://www.w3.org/2000/svg" viewBox="0 0 240 158" role="img" aria-label="SlowShield logo"><g transform="translate(84 2) scale(1.125)"><defs><linearGradient id="ua-edge" gradientUnits="userSpaceOnUse" x1="15.48" y1="0" x2="58.52" y2="0"><stop offset="0" style="stop-color:#7f95ff;stop-opacity:1"/><stop offset="0.42" style="stop-color:#7f95ff;stop-opacity:1"/><stop offset="0.78" style="stop-color:#7f95ff;stop-opacity:0.38"/><stop offset="1" style="stop-color:#7f95ff;stop-opacity:0.14"/></linearGradient></defs><path d="M37 7.5 L55.92 13.52 L55.92 29.86 C55.92 42.76 48.18 51.36 37 55.66 C25.82 51.36 18.08 42.76 18.08 29.86 L18.08 13.52 Z" fill="none" stroke="url(#ua-edge)" stroke-width="5.2" stroke-linejoin="round"/><defs><linearGradient id="ua-g-in" gradientUnits="userSpaceOnUse" x1="1.03" y1="3.78" x2="22.6" y2="8.09"><stop offset="0" style="stop-color:#e6eafb;stop-opacity:0"/><stop offset="0.55" style="stop-color:#e6eafb;stop-opacity:0.55"/><stop offset="1" style="stop-color:#e6eafb;stop-opacity:1"/></linearGradient></defs><path d="M0.99 3.97 L22.27 9.76 A1.7 1.7 0 0 1 22.94 6.43 L1.07 3.58 Z" fill="url(#ua-g-in)"/><defs><linearGradient id="ua-g-out" gradientUnits="userSpaceOnUse" x1="22.6" y1="8.09" x2="31.53" y2="-1.35"><stop offset="0" style="stop-color:#e6eafb;stop-opacity:0.8"/><stop offset="1" style="stop-color:#e6eafb;stop-opacity:0.0"/></linearGradient></defs><path d="M22.6 8.09 L31.53 -1.35" fill="none" stroke="url(#ua-g-out)" stroke-width="2.24" stroke-linecap="round"/><circle cx="62.2" cy="39.6" r="1.4" fill="#7f95ff" opacity=".3"/><circle cx="54.6" cy="37.4" r="2.2" fill="#7f95ff" opacity=".55"/><circle cx="42.5" cy="34" r="5.6" fill="#7f95ff"/></g><text x="120" y="120" font-family="system-ui, -apple-system, 'Segoe UI', Roboto, 'Helvetica Neue', Arial, sans-serif" font-size="34" letter-spacing="-0.5" text-anchor="middle"><tspan fill="#e6eafb" font-weight="500">Slow</tspan><tspan fill="#7f95ff" font-weight="750">Shield</tspan></text><text x="120" y="146" font-family="system-ui, -apple-system, 'Segoe UI', Roboto, 'Helvetica Neue', Arial, sans-serif" font-size="11.5" font-weight="600" letter-spacing="2.4" text-anchor="middle" fill="#98a2c4">DEFLECT, DON'T OBSTRUCT.</text></svg>
