<svg xmlns="http://www.w3.org/2000/svg" viewBox="0 0 64 64" role="img" aria-label="SlowShield"><g fill="#1d44c4"><rect x="4" y="4" width="8" height="8" rx="1.92"/><rect x="16" y="4" width="8" height="8" rx="1.92"/><rect x="28" y="4" width="8" height="8" rx="1.92"/><rect x="40" y="4" width="8" height="8" rx="1.92"/><rect x="52" y="4" width="8" height="8" rx="1.92"/><rect x="4" y="16" width="8" height="8" rx="1.92"/><rect x="16" y="16" width="8" height="8" rx="1.92"/><rect x="28" y="16" width="8" height="8" rx="1.92"/><rect x="40" y="16" width="8" height="8" rx="1.92"/><rect x="52" y="16" width="8" height="8" rx="1.92"/><rect x="4" y="28" width="8" height="8" rx="1.92"/><rect x="16" y="28" width="8" height="8" rx="1.92"/><rect x="28" y="28" width="8" height="8" rx="1.92"/><rect x="40" y="28" width="8" height="8" rx="1.92"/><rect x="52" y="28" width="8" height="8" rx="1.92"/><rect x="16" y="40" width="8" height="8" rx="1.92"/><rect x="28" y="40" width="8" height="8" rx="1.92"/><rect x="28" y="52" width="8" height="8" rx="1.92"/></g><g fill="#1c1914"><rect x="40" y="40" width="8" height="8" rx="1.92"/></g></svg>
